Genre:Horror | Mystery | Thriller
Language:English
IMDb:http://www.imdb.com/title/tt0901504/
Source:Bluray.x264.DTS-WiKi


Format : Matroska
File size : 1.75 GiB
Duration : 1h 38mn
Overall bit rate : 2 559 Kbps


Video
Format settings, CABAC : Yes
Format settings, ReFrames : 4 frames
Codec ID : V_MPEG4/ISO/AVC
Duration : 1h 38mn
Bit rate : 2 200 Kbps
Width : 1 280 pixels
Height : 546 pixels
Display aspect ratio : 2.35:1
Frame rate mode : Variable
Frame rate : 23.976 fps
Color space : YUV
Chroma subsampling : 4:2:0
Bit depth : 8 bits
Scan type : Progressive
Bits/(Pixel*Frame) : 0.131
Stream size : 1.45 GiB (83%)
Writing library : x264


Audio
ID : 2
Format : AC-3
Format/Info : Audio Coding 3
Mode extension : CM (complete main)
Codec ID : A_AC3
Duration : 1h 38mn
Bit rate mode : Constant
Bit rate : 384 Kbps
Channel(s) : 6 channels
Channel positions : Front: L C R, Side: L R, LFE
Sampling rate : 48.0 KHz
Bit depth : 16 bits
Video delay : -1mn 5s
Stream size : 269 MiB (15%)
Language : English



Plot:
Working alone at night in a recently closed hospital, an unstable woman witnesses events that may be connected to a string of murders
 
http://rapidhdd.com/images/471081vlcsnap-00001.png
 
http://www.rapidhdd.com/images/539780vlcsnap-00003.png
 
http://www.rapidhdd.com/images/330649vlcsnap-00004.png
 
http://www.rapidhdd.com/images/721714vlcsnap-00002.png

Greets:

INK,CRYS,IMAGINE,LKRG,FXG,3Li,FLAWL3SS,TA,iLLUSiON,ViSiON,LU,TheFalcon007,PrisM,Noir,WBZ,LAP,Rx,Kingdom,SAFCuk009+Fabreezy,HDLiTE,TWiZTED,ExtraTorrentRG.ELEKTRI4KA,MAGNAT,CM8
And to all the other p2p grps past and present




Make sure its a real Feel-Free release @ extratorrent